<svg xmlns="http://www.w3.org/2000/svg" width="1200" height="675" viewBox="0 0 1200 675" role="img" aria-labelledby="title desc">
  <title id="title">비오케이솔루션 운영 흐름 카드</title>
  <desc id="desc">문의, 제작, 운영 자동화, 개선으로 이어지는 홈페이지 운영 흐름을 보여주는 브랜드 카드</desc>
  <rect width="1200" height="675" fill="#0b1812"/>
  <rect x="44" y="44" width="1112" height="587" rx="36" fill="#fbfaf6"/>
  <text x="92" y="118" font-family="Arial, sans-serif" font-size="30" font-weight="800" fill="#0b1812">BEOK SOLUTION</text>
  <text x="92" y="170" font-family="Arial, sans-serif" font-size="54" font-weight="900" fill="#0b1812">홈페이지 운영 흐름</text>
  <text x="92" y="214" font-family="Arial, sans-serif" font-size="24" fill="#475569">제작 이후의 반복 업무까지 한 흐름으로 정리합니다.</text>
  <g transform="translate(92 292)">
    <rect width="210" height="160" rx="24" fill="#d6ee59"/>
    <text x="32" y="58" font-family="Arial, sans-serif" font-size="28" font-weight="900" fill="#0b1812">문의</text>
    <text x="32" y="100" font-family="Arial, sans-serif" font-size="20" fill="#223026">상담/폼/알림</text>
  </g>
  <g transform="translate(356 292)">
    <rect width="210" height="160" rx="24" fill="#e9f2ec"/>
    <text x="32" y="58" font-family="Arial, sans-serif" font-size="28" font-weight="900" fill="#0b1812">제작</text>
    <text x="32" y="100" font-family="Arial, sans-serif" font-size="20" fill="#223026">페이지/SEO/반응형</text>
  </g>
  <g transform="translate(620 292)">
    <rect width="210" height="160" rx="24" fill="#0f2a1d"/>
    <text x="32" y="58" font-family="Arial, sans-serif" font-size="28" font-weight="900" fill="#ffffff">자동화</text>
    <text x="32" y="100" font-family="Arial, sans-serif" font-size="20" fill="#d7eadb">예약/결제/알림톡</text>
  </g>
  <g transform="translate(884 292)">
    <rect width="210" height="160" rx="24" fill="#f1f5ef"/>
    <text x="32" y="58" font-family="Arial, sans-serif" font-size="28" font-weight="900" fill="#0b1812">개선</text>
    <text x="32" y="100" font-family="Arial, sans-serif" font-size="20" fill="#223026">검색/데이터/운영</text>
  </g>
  <path d="M316 372h24M580 372h24M844 372h24" stroke="#0b1812" stroke-width="10" stroke-linecap="round"/>
  <circle cx="1016" cy="128" r="54" fill="#d6ee59"/>
</svg>
